<svg width="1386" height="453" viewBox="0 0 1386 453" fill="none" xmlns="http://www.w3.org/2000/svg">
<mask id="mask0_5_2" style="mask-type:alpha" maskUnits="userSpaceOnUse" x="0" y="46" width="159" height="181">
<path d="M72.0181 46.2852C69.5717 46.4362 67.1384 46.8077 64.7602 47.4127C62.5887 47.9649 60.438 48.6085 58.2731 49.1916C38.1091 54.4311 22.7105 66.0993 11.7758 83.8843C1.8989 99.9445 -1.45571 117.35 0.560799 135.916C2.31232 152.039 9.54711 165.715 19.8396 177.898C28.9931 188.733 39.7804 197.702 51.6078 205.491C63.8762 213.57 76.9406 219.89 90.9506 224.268C94.4096 225.348 97.9633 226.003 101.512 226.68C102.271 226.825 103.097 226.964 103.62 226.187C104.05 225.55 103.881 224.892 103.595 224.285C103.288 223.636 102.857 223.053 102.399 222.499C100.046 219.657 98.3272 216.45 96.8802 213.076C95.176 209.098 95.7873 204.712 101.409 203.248C116.071 199.429 128.22 191.324 138.157 179.991C152.457 163.681 159.14 144.493 158.008 122.865C156.807 99.949 147.525 80.6419 130.201 65.546C115.076 52.3679 97.4993 46.1023 77.8939 46.1023C75.9543 46.1023 73.9972 46.164 72.0181 46.2852Z" fill="white"/>
</mask>
<g mask="url(#mask0_5_2)">
<path d="M163.627 40.5918L163.624 121.56L140.975 121.388L140.744 121.387C135.388 121.387 130.13 122.84 125.525 125.595L119.998 128.905L114.238 122.4C113.774 121.879 113.255 121.405 112.691 120.99C110.559 119.422 107.946 118.782 105.335 119.185C102.723 119.589 100.422 120.987 98.859 123.124L95.246 128.062L90.3707 110.218C89.5153 107.083 87.0216 104.68 83.8572 103.949C81.568 103.425 79.2107 103.819 77.2184 105.07C75.2261 106.32 73.8407 108.273 73.314 110.568L68.9171 129.736L66.2101 117.562C65.4305 114.065 62.8203 111.252 59.3997 110.224C56.8653 109.46 54.1902 109.731 51.8636 110.988C49.536 112.243 47.835 114.33 47.0741 116.869L43.8482 127.633L41.7074 121.143C40.3627 117.072 36.5881 114.339 32.3121 114.339H26.3879C23.3522 114.339 20.8904 116.806 20.8904 119.85C20.8904 122.894 23.3522 125.36 26.3879 125.36H31.5171L37.7866 144.363C38.9301 147.821 42.6695 149.708 46.1242 148.561C48.1638 147.885 49.7504 146.247 50.3672 144.186L56.3936 124.079L62.4112 151.136C62.795 152.86 63.8241 154.331 65.3129 155.279C66.3827 155.961 67.5987 156.311 68.8379 156.311C69.3195 156.311 69.8066 156.259 70.2881 156.151C72.7489 155.6 74.7082 153.652 75.2799 151.179L82.0727 121.57L85.8451 135.373C86.4642 137.645 87.9309 139.538 89.9716 140.705C92.0123 141.87 94.384 142.169 96.6501 141.55C98.5566 141.027 100.251 139.858 101.421 138.26L106.921 130.742L111.776 136.223C115.28 140.174 121.105 141.076 125.634 138.367L131.162 135.058C134.102 133.298 137.41 132.385 140.89 132.41L163.624 132.581L163.627 232.304H-5.49771V40.5918H163.627Z" fill="#EBEBEB"/>
</g>
<g clip-path="url(#clip0_5_2)">
<mask id="mask1_5_2" style="mask-type:alpha" maskUnits="userSpaceOnUse" x="892" y="-121" width="459" height="530">
<path d="M1149.7 -119.644C1142.68 -120.689 1135.57 -121.104 1128.48 -120.826C1122 -120.573 1115.52 -120.05 1109.04 -119.706C1048.81 -117.041 998.215 -93.3584 956.588 -49.7201C918.99 -10.3156 899.052 36.8116 893.624 90.4432C888.912 137.02 901.191 179.986 923.024 220.575C942.44 256.673 967.601 288.486 996.415 317.591C1026.3 347.78 1059.5 373.485 1096.54 394.272C1105.68 399.402 1115.35 403.388 1124.99 407.437C1127.06 408.301 1129.31 409.19 1131.26 407.311C1132.86 405.771 1132.77 403.811 1132.33 401.928C1131.85 399.91 1130.98 398.005 1130.01 396.164C1125.06 386.723 1122.11 376.637 1120.04 366.238C1117.6 353.983 1121.96 341.965 1138.76 341.214C1182.56 339.251 1221.82 323.674 1256.75 297.653C1307.02 260.203 1337.45 210.045 1347.22 148.301C1357.57 82.8746 1342.87 22.7784 1302.88 -30.2646C1267.96 -76.5703 1221.95 -104.834 1166.45 -116.626C1160.96 -117.793 1155.38 -118.796 1149.7 -119.644Z" fill="white"/>
</mask>
<g mask="url(#mask1_5_2)">
<path d="M1412.48 -80.6163L1363.9 147.992L1299.88 133.885L1299.23 133.743C1284.06 130.521 1268.31 131.46 1253.62 136.47L1235.98 142.49L1223.58 120.659C1222.58 118.908 1221.39 117.258 1220.04 115.749C1214.95 110.038 1207.93 106.659 1200.3 106.227C1192.66 105.794 1185.31 108.36 1179.6 113.453L1166.41 125.221L1163.31 71.9079C1162.77 62.5403 1157.15 54.2565 1148.63 50.29C1142.46 47.4318 1135.55 47.1279 1129.16 49.4614C1122.77 51.7918 1117.68 56.4727 1114.81 62.6347L1090.86 114.111L1090.5 78.1093C1090.39 67.7666 1084.69 58.2551 1075.62 53.2943C1068.9 49.6134 1061.17 48.7698 1053.83 50.9178C1046.48 53.0621 1040.42 57.9328 1036.74 64.6416L1021.15 93.0944L1018.98 73.4812C1017.62 61.1804 1008.57 51.1926 996.462 48.6206L979.689 45.0572C971.094 43.2311 962.645 48.7146 960.819 57.3095C958.993 65.9043 964.483 74.3494 973.078 76.1754L987.6 79.2606L993.951 136.686C995.115 147.135 1004.57 154.712 1015.04 153.554C1021.22 152.87 1026.69 149.2 1029.68 143.752L1058.8 90.6049L1059.61 170.62C1059.66 175.717 1061.69 180.491 1065.34 184.062C1067.96 186.632 1071.19 188.353 1074.7 189.099C1076.06 189.388 1077.47 189.532 1078.9 189.517C1086.2 189.441 1092.91 185.121 1096.01 178.482L1133.01 98.9684L1135.41 140.21C1135.8 146.996 1138.82 153.224 1143.89 157.747C1148.97 162.264 1155.51 164.534 1162.29 164.148C1168.01 163.82 1173.5 161.537 1177.77 157.729L1197.86 139.811L1208.31 158.207C1215.87 171.47 1231.82 177.52 1246.26 172.595L1263.9 166.578C1273.28 163.377 1283.19 162.79 1293.03 164.952L1357.29 179.11L1297.48 460.676L818.652 358.947L933.652 -182.345L1412.48 -80.6163Z" fill="#EBEBEB"/>
</g>
</g>
<defs>
<clipPath id="clip0_5_2">
<rect width="466" height="534" fill="white" transform="translate(946.574 -166.592) rotate(11.9944)"/>
</clipPath>
</defs>
</svg>
