<svg width="83" height="30" viewBox="0 0 83 30" fill="none" xmlns="http://www.w3.org/2000/svg">
<path d="M44.0509 12.1795C44.0298 11.621 43.9307 11.1301 43.7538 10.706C43.5764 10.2824 43.3418 9.93048 43.0501 9.65131C42.7581 9.37197 42.4248 9.16554 42.0496 9.03079C41.6743 8.89656 41.2884 8.82919 40.8926 8.82919C40.0796 8.82919 39.3759 9.12372 38.7817 9.71315C38.1876 10.3026 37.8485 11.1247 37.7655 12.1795H44.0509ZM37.6405 14.7231C37.703 15.8818 38.0417 16.8019 38.6567 17.4844C39.2714 18.1668 40.0796 18.508 41.0802 18.508C41.7471 18.508 42.3358 18.3582 42.8469 18.0583C43.3575 17.7587 43.6859 17.3398 43.832 16.8019H48.0222C47.5425 18.3737 46.7089 19.5837 45.5206 20.4314C44.3323 21.2796 42.9143 21.7034 41.2679 21.7034C36.1394 21.7034 33.5753 18.9321 33.5753 13.3895C33.5753 12.2106 33.7417 11.1456 34.0755 10.1941C34.4088 9.24293 34.8935 8.42581 35.5296 7.74326C36.1653 7.06072 36.9416 6.53867 37.8593 6.17657C38.7763 5.81501 39.8293 5.63379 41.0176 5.63379C43.3942 5.63379 45.1922 6.38907 46.4118 7.89839C47.6315 9.40825 48.2411 11.6832 48.2411 14.7231H37.6405Z" fill="#00070F"/>
<path d="M58.998 13.8236C58.7894 14.0306 58.4871 14.1959 58.0913 14.3199C57.6951 14.4441 57.1219 14.5789 56.3713 14.7231C55.2036 14.9512 54.4013 15.2405 53.9636 15.5921C53.5258 15.9438 53.3069 16.4503 53.3069 17.1118C53.3069 18.2497 53.9636 18.818 55.2769 18.818C55.7977 18.818 56.2823 18.7305 56.7309 18.5546C57.1788 18.3789 57.5645 18.141 57.8879 17.8411C58.2109 17.5416 58.4712 17.1895 58.6697 16.7861C58.8676 16.3829 58.9666 15.954 58.9666 15.4988L58.998 13.8236ZM59.2794 21.3C59.1544 20.9073 59.0708 20.4521 59.0293 19.9351C58.5496 20.473 57.9138 20.902 57.1219 21.2224C56.3294 21.5427 55.4122 21.7033 54.37 21.7033C52.598 21.7033 51.3001 21.3155 50.4768 20.54C49.653 19.7644 49.2417 18.7562 49.2417 17.5153C49.2417 16.4192 49.4186 15.5453 49.7733 14.8938C50.1275 14.2425 50.6175 13.7305 51.243 13.3582C51.8684 12.9859 52.6137 12.7121 53.4789 12.5363C54.3437 12.3606 55.2872 12.2003 56.3086 12.0551C57.3299 11.9109 58.0179 11.7195 58.3727 11.4814C58.7269 11.2439 58.9041 10.8561 58.9041 10.3181C58.9041 9.82164 58.6697 9.43398 58.2006 9.15482C57.7317 8.87547 57.1008 8.73589 56.3086 8.73589C55.3706 8.73589 54.6982 8.94285 54.2918 9.35642C53.8855 9.77034 53.6299 10.3181 53.5258 11.0007H49.742C49.7625 10.215 49.893 9.49118 50.1329 8.82919C50.3723 8.16737 50.7582 7.59885 51.2899 7.12291C51.8215 6.64733 52.5144 6.28041 53.3692 6.02162C54.2239 5.76318 55.2661 5.63379 56.4964 5.63379C57.7052 5.63379 58.7323 5.76855 59.5765 6.03699C60.4209 6.30615 61.0981 6.6938 61.6092 7.2003C62.1197 7.70734 62.4896 8.33805 62.7193 9.09262C62.9484 9.84791 63.0632 10.701 63.0632 11.6521V21.3H59.2794Z" fill="#00070F"/>
<path d="M73.2268 5.63428C72.8089 5.63428 72.4017 5.65572 72.0072 5.69683C71.6108 5.73794 71.2199 5.83624 70.8344 5.98994C70.447 6.14543 70.0723 6.36883 69.7084 6.65836C69.3427 6.94789 68.9932 7.35002 68.6599 7.86832V6.03641H64.846V21.2994H68.9103V13.3587C68.9103 10.8977 70.1516 9.66646 72.6323 9.66646C72.8377 9.66646 73.0413 9.67521 73.2466 9.69487V5.63428H73.2268Z" fill="#00070F"/>
<path d="M82.5139 1.95264V21.2994H78.448V9.75749H75.0284V5.49476C75.5671 5.46437 76.0393 5.40021 76.4463 5.3037C77.0518 5.15876 77.5472 4.93535 77.9325 4.63527C78.3181 4.33681 78.6099 3.96327 78.8083 3.51825C79.0063 3.07484 79.136 2.55297 79.1992 1.95264H82.5139Z" fill="#00070F"/>
<mask id="mask0_0_443" style="mask-type:alpha" maskUnits="userSpaceOnUse" x="0" y="0" width="26" height="30">
<path d="M11.8002 0.208379C11.3993 0.232864 11.0006 0.293094 10.611 0.391213C10.2551 0.480754 9.90277 0.585128 9.54804 0.679673C6.24418 1.52932 3.72111 3.42147 1.92946 6.30553C0.311132 8.90989 -0.238521 11.7325 0.0918836 14.7431C0.378871 17.3576 1.56429 19.5754 3.25072 21.551C4.75051 23.308 6.51801 24.7625 8.45594 26.0255C10.4661 27.3356 12.6067 28.3605 14.9022 29.0704C15.469 29.2456 16.0513 29.3517 16.6328 29.4617C16.7571 29.4851 16.8924 29.5076 16.9782 29.3816C17.0486 29.2783 17.0209 29.1716 16.974 29.0733C16.9238 28.968 16.8531 28.8735 16.778 28.7836C16.3925 28.3226 16.1109 27.8027 15.8738 27.2555C15.5946 26.6105 15.6947 25.8992 16.6159 25.6618C19.0182 25.0425 21.0088 23.7282 22.637 21.8904C24.9801 19.2455 26.0751 16.1339 25.8895 12.6268C25.6928 8.9106 24.1719 5.77972 21.3334 3.33175C18.8552 1.19475 15.9753 0.178711 12.7629 0.178711C12.4451 0.178711 12.1244 0.188719 11.8002 0.208379Z" fill="white"/>
</mask>
<g mask="url(#mask0_0_443)">
<path d="M26.8103 -0.714844L26.8097 12.4151L23.0987 12.3873L23.0608 12.3871C22.1833 12.3871 21.3218 12.6227 20.5673 13.0695L19.6617 13.6062L18.7178 12.5514C18.6418 12.4668 18.5568 12.39 18.4644 12.3228C18.115 12.0685 17.687 11.9646 17.2591 12.03C16.8311 12.0954 16.4542 12.3222 16.198 12.6688L15.606 13.4695L14.8072 10.5759C14.6671 10.0675 14.2585 9.67785 13.74 9.55936C13.3649 9.47428 12.9787 9.53827 12.6522 9.74112C12.3258 9.94379 12.0988 10.2605 12.0125 10.6326L11.292 13.7409L10.8485 11.7668C10.7208 11.1997 10.2931 10.7436 9.73262 10.5768C9.31736 10.453 8.87904 10.4969 8.49783 10.7007C8.11645 10.9043 7.83775 11.2428 7.71308 11.6544L7.1845 13.3999L6.83374 12.3474C6.61341 11.6874 5.99494 11.2442 5.29432 11.2442H4.32364C3.82623 11.2442 3.42287 11.6442 3.42287 12.1378C3.42287 12.6314 3.82623 13.0314 4.32364 13.0314H5.16406L6.19131 16.113C6.37867 16.6736 6.99138 16.9796 7.55742 16.7937C7.89161 16.684 8.15158 16.4184 8.25264 16.0842L9.24007 12.8236L10.2261 17.2112C10.2889 17.4907 10.4576 17.7293 10.7015 17.883C10.8768 17.9937 11.076 18.0505 11.2791 18.0505C11.358 18.0505 11.4378 18.0419 11.5167 18.0244C11.9199 17.935 12.2409 17.6192 12.3346 17.2182L13.4476 12.4168L14.0657 14.6551C14.1671 15.0235 14.4075 15.3305 14.7418 15.5198C15.0762 15.7087 15.4648 15.7571 15.8361 15.6567C16.1485 15.572 16.4261 15.3823 16.6178 15.1232L17.5189 13.9041L18.3145 14.7929C18.8886 15.4336 19.8431 15.5798 20.5852 15.1405L21.4908 14.604C21.9725 14.3186 22.5146 14.1706 23.0848 14.1745L26.8097 14.2023L26.8103 30.3736H-0.900818V-0.714844H26.8103Z" fill="#D2D9D6"/>
</g>
</svg>
