<svg width="54" height="54" viewBox="0 0 54 54" fill="none" xmlns="http://www.w3.org/2000/svg">
<path d="M49.36 41.6003H45.06V33.9825C45.06 25.9096 41.9167 18.3201 36.208 12.6123C36.0472 12.4506 35.8287 12.3603 35.6 12.3603H34.74V9.90676L37.2838 1.42716C37.3733 1.12616 37.2933 0.800218 37.0723 0.575758C36.8513 0.352158 36.5227 0.267018 36.2243 0.353018L30.526 1.98186L27.3852 0.411498C27.1436 0.290238 26.8581 0.290238 26.6155 0.411498L23.474 1.98186L17.7756 0.353878C17.4763 0.268738 17.1487 0.353018 16.9276 0.576618C16.7066 0.800218 16.6258 1.12702 16.7161 1.42802L19.26 9.90676V12.3603H18.4C18.1712 12.3603 17.9528 12.4506 17.7919 12.6123C12.3206 18.0845 9.21001 25.2973 8.96405 33.0003H8.07997H1.19997C0.724386 33.0003 0.339966 33.3856 0.339966 33.8603V52.7803C0.339966 53.2551 0.724386 53.6403 1.19997 53.6403H8.07997C8.55555 53.6403 8.93997 53.2551 8.93997 52.7803V51.9203H13.24C13.7155 51.9203 14.1 51.5351 14.1 51.0603V50.2003H19.8594L24.8027 53.4959C24.9454 53.5905 25.1114 53.6403 25.28 53.6403C25.341 53.6403 25.4029 53.6335 25.464 53.6206L52.984 47.6006C53.3787 47.5137 53.66 47.1645 53.66 46.7603V45.9003C53.66 43.5293 51.731 41.6003 49.36 41.6003ZM23.3243 3.7268C23.5316 3.78614 23.7535 3.7655 23.9452 3.66918L27 2.14182L30.0555 3.66918C30.2473 3.7655 30.4683 3.78614 30.6765 3.7268L35.1846 2.43852L33.2401 8.92034H30.6292L31.2836 5.6489L29.5972 5.31178L28.8748 8.92034H25.1252L24.4028 5.31178L22.7172 5.6489L23.3708 8.92034H20.7598L18.8153 2.43938L23.3243 3.7268ZM20.98 10.6403H33.02V12.3603H20.98V10.6403ZM7.21997 51.9203H2.05997V34.7203H7.21997V51.0603V51.9203ZM12.38 50.2003H8.93997V34.7203H12.38V50.2003ZM10.684 33.0003C10.9257 25.8735 13.7663 19.1956 18.7594 14.0803H35.2405C40.4667 19.4338 43.34 26.4867 43.34 33.9825V41.6003H29.4897C29.3925 41.2194 29.217 40.8599 28.9582 40.558L24.2118 35.0213C24.0493 34.8296 23.8111 34.7203 23.56 34.7203H14.1V33.8603C14.1 33.3856 13.7155 33.0003 13.24 33.0003H10.684ZM51.94 46.068L25.4528 51.8619L20.5973 48.6248C20.4562 48.5311 20.2894 48.4803 20.12 48.4803H14.1V36.4403H23.1644L27.6536 41.6769C27.786 41.8325 27.86 42.0312 27.86 42.2359V43.3203C27.86 43.7942 27.4747 44.1803 27 44.1803H25.992C25.7659 44.1803 25.544 44.0883 25.384 43.9284L21.588 40.1323L20.3719 41.3484L24.168 45.1444C24.6547 45.632 25.3032 45.9003 25.992 45.9003H27C28.4224 45.9003 29.58 44.7428 29.58 43.3203H49.36C50.7824 43.3203 51.94 44.4779 51.94 45.9003V46.068Z" fill="#5051DB"/>
<path d="M26.9999 34.7203C32.2158 34.7203 36.4599 30.4762 36.4599 25.2603C36.4599 20.0444 32.2158 15.8003 26.9999 15.8003C21.784 15.8003 17.5399 20.0444 17.5399 25.2603C17.5399 30.4762 21.784 34.7203 26.9999 34.7203ZM34.7399 25.2603C34.7399 29.2369 31.7239 32.5204 27.8599 32.9496V31.1221C28.8584 30.766 29.5799 29.82 29.5799 28.7003V26.9803C29.5799 25.5579 28.4224 24.4003 26.9999 24.4003C26.5252 24.4003 26.1399 24.0142 26.1399 23.5403V21.8203C26.1399 21.3464 26.5252 20.9603 26.9999 20.9603C27.4746 20.9603 27.8599 21.3464 27.8599 21.8203V22.6803H29.5799V21.8203C29.5799 20.7006 28.8584 19.7546 27.8599 19.3985V17.571C31.7239 18.0002 34.7399 21.2837 34.7399 25.2603ZM26.1399 17.571V19.3985C25.1415 19.7546 24.4199 20.7006 24.4199 21.8203V23.5403C24.4199 24.9627 25.5775 26.1203 26.9999 26.1203C27.4746 26.1203 27.8599 26.5064 27.8599 26.9803V28.7003C27.8599 29.1742 27.4746 29.5603 26.9999 29.5603C26.5252 29.5603 26.1399 29.1742 26.1399 28.7003V27.8403H24.4199V28.7003C24.4199 29.82 25.1415 30.766 26.1399 31.1221V32.9496C22.2759 32.5196 19.2599 29.2369 19.2599 25.2603C19.2599 21.2837 22.2759 18.0002 26.1399 17.571Z" fill="#5051DB"/>
<path d="M33.0201 34.7202C31.5976 34.7202 30.4401 35.8777 30.4401 37.3002C30.4401 38.7226 31.5976 39.8802 33.0201 39.8802C34.4425 39.8802 35.6001 38.7226 35.6001 37.3002C35.6001 35.8777 34.4425 34.7202 33.0201 34.7202ZM33.0201 38.1602C32.5453 38.1602 32.1601 37.774 32.1601 37.3002C32.1601 36.8263 32.5453 36.4402 33.0201 36.4402C33.4948 36.4402 33.8801 36.8263 33.8801 37.3002C33.8801 37.774 33.4948 38.1602 33.0201 38.1602Z" fill="#5051DB"/>
<path d="M39.0401 36.4401C40.9373 36.4401 42.4801 34.8973 42.4801 33.0001C42.4801 31.103 40.9373 29.5601 39.0401 29.5601C37.1429 29.5601 35.6001 31.103 35.6001 33.0001C35.6001 34.8973 37.1429 36.4401 39.0401 36.4401ZM39.0401 31.2801C39.9887 31.2801 40.7601 32.0515 40.7601 33.0001C40.7601 33.9487 39.9887 34.7201 39.0401 34.7201C38.0915 34.7201 37.3201 33.9487 37.3201 33.0001C37.3201 32.0515 38.0915 31.2801 39.0401 31.2801Z" fill="#5051DB"/>
<path d="M3.77997 27.8403C5.67713 27.8403 7.21997 26.2974 7.21997 24.4003C7.21997 22.5031 5.67713 20.9603 3.77997 20.9603C1.88281 20.9603 0.339966 22.5031 0.339966 24.4003C0.339966 26.2974 1.88281 27.8403 3.77997 27.8403ZM3.77997 22.6803C4.72855 22.6803 5.49997 23.4517 5.49997 24.4003C5.49997 25.3488 4.72855 26.1203 3.77997 26.1203C2.83139 26.1203 2.05997 25.3488 2.05997 24.4003C2.05997 23.4517 2.83139 22.6803 3.77997 22.6803Z" fill="#5051DB"/>
<path d="M7.21994 20.1001C10.0657 20.1001 12.3799 17.7858 12.3799 14.9401C12.3799 12.0944 10.0657 9.78009 7.21994 9.78009C4.3742 9.78009 2.05994 12.0944 2.05994 14.9401C2.05994 17.7858 4.3742 20.1001 7.21994 20.1001ZM7.21994 11.5001C9.1171 11.5001 10.6599 13.0429 10.6599 14.9401C10.6599 16.8373 9.1171 18.3801 7.21994 18.3801C5.32278 18.3801 3.77994 16.8373 3.77994 14.9401C3.77994 13.0429 5.32278 11.5001 7.21994 11.5001Z" fill="#5051DB"/>
<path d="M46.78 14.9401C46.78 16.8373 48.3229 18.3801 50.22 18.3801C52.1172 18.3801 53.66 16.8373 53.66 14.9401C53.66 13.043 52.1172 11.5001 50.22 11.5001C48.3229 11.5001 46.78 13.043 46.78 14.9401ZM50.22 13.2201C51.1686 13.2201 51.94 13.9915 51.94 14.9401C51.94 15.8887 51.1686 16.6601 50.22 16.6601C49.2714 16.6601 48.5 15.8887 48.5 14.9401C48.5 13.9915 49.2714 13.2201 50.22 13.2201Z" fill="#5051DB"/>
<path d="M44.1999 10.6403C47.0457 10.6403 49.3599 8.32605 49.3599 5.48031C49.3599 2.63457 47.0457 0.320312 44.1999 0.320312C41.3542 0.320312 39.0399 2.63457 39.0399 5.48031C39.0399 8.32605 41.3542 10.6403 44.1999 10.6403ZM44.1999 2.04031C46.0971 2.04031 47.6399 3.58315 47.6399 5.48031C47.6399 7.37747 46.0971 8.92031 44.1999 8.92031C42.3028 8.92031 40.7599 7.37747 40.7599 5.48031C40.7599 3.58315 42.3028 2.04031 44.1999 2.04031Z" fill="#5051DB"/>
</svg>
