<svg width="60" height="60" viewBox="0 0 60 60" fill="none" xmlns="http://www.w3.org/2000/svg">
<circle cx="30" cy="30" r="30" fill="#5051DB" fill-opacity="0.04"/>
<circle cx="30" cy="30" r="29" stroke="#5051DB" stroke-opacity="0.08" stroke-width="2"/>
<path d="M29.5381 32.7842L27.8535 32.3626V24.6003C29.798 24.0769 31.492 22.8201 32.5532 21.0955L35.6639 16.0397C35.8669 15.7118 35.9737 15.3339 35.9737 14.9472C35.9737 13.7979 35.0386 12.8622 33.8887 12.8622H33.632C32.9336 12.8622 32.2846 13.2095 31.8974 13.7904L28.8173 18.4102C28.327 19.1454 27.6361 19.6982 26.8447 20.0236C27.4743 19.2665 27.8535 18.2946 27.8535 17.2346C27.8535 14.8235 25.8915 12.8622 23.481 12.8622C21.0706 12.8622 19.1086 14.8235 19.1086 17.2346C19.1086 18.4926 19.6458 19.6245 20.4984 20.4227C17.6339 20.7544 15.0266 22.4072 13.5269 24.9064L10.6623 29.6811C10.4668 30.0059 10.3637 30.3782 10.3637 30.7586C10.3637 31.9123 11.3026 32.8505 12.4563 32.8505H12.7024C13.4032 32.8505 14.0541 32.5019 14.4426 31.9191L18.311 26.1163C18.5077 25.8202 18.7882 25.5985 19.1086 25.4729V30.9766V33.3477V40.9707H14.7362C13.3582 40.9707 12.2376 42.0913 12.2376 43.4692C12.2376 44.8472 13.3582 45.9678 14.7362 45.9678H21.6071C22.9851 45.9678 24.1057 44.8472 24.1057 43.4692V37.8538L27.3175 38.3129C27.623 38.356 27.8535 38.6221 27.8535 38.9306V46.5924C27.8535 47.9703 28.9741 49.0909 30.352 49.0909C31.73 49.0909 32.8506 47.9703 32.8506 46.5924V37.0261C32.8506 35.0161 31.4882 33.2715 29.5381 32.7842ZM24.0882 26.9876L23.481 27.5948L22.8739 26.9876L23.2331 21.6071H23.729L24.0882 26.9876ZM20.3579 17.2346C20.3579 15.5125 21.7589 14.1114 23.481 14.1114C25.2032 14.1114 26.6042 15.5125 26.6042 17.2346C26.6042 18.9567 25.2032 20.3578 23.481 20.3578C21.7589 20.3578 20.3579 18.9567 20.3579 17.2346ZM21.6071 44.7185H14.7362C14.0472 44.7185 13.4869 44.1582 13.4869 43.4692C13.4869 42.7803 14.0472 42.22 14.7362 42.22H20.3579V36.3927C21.0119 37.0649 21.8776 37.534 22.8564 37.6751V43.4692C22.8564 44.1582 22.2961 44.7185 21.6071 44.7185ZM31.6013 46.5924C31.6013 47.2814 31.041 47.8417 30.352 47.8417C29.663 47.8417 29.1028 47.2814 29.1028 46.5924V38.9306C29.1028 38.0043 28.4113 37.2066 27.4943 37.0761L23.0394 36.4396C21.511 36.221 20.3579 34.8924 20.3579 33.3477V30.9766V24.1056H19.7332C18.742 24.1056 17.8212 24.5984 17.2716 25.4229L13.4032 31.2258C13.2458 31.4606 12.9841 31.6012 12.7017 31.6012H12.4563C11.9909 31.6012 11.613 31.2233 11.613 30.7586C11.613 30.6055 11.6542 30.4556 11.7329 30.3251L14.5981 25.5497C16.0573 23.1174 18.7257 21.6071 21.5616 21.6071H21.9807L21.5897 27.4699L23.481 29.3612L25.3724 27.4699L24.9814 21.6071H25.1794C27.0639 21.6071 28.8117 20.6713 29.8567 19.1035L32.9368 14.4837C33.0923 14.2507 33.3521 14.1114 33.632 14.1114H33.8887C34.349 14.1114 34.7245 14.4869 34.7245 14.9472C34.7245 15.1021 34.682 15.2533 34.6008 15.3851L31.4901 20.4402C30.5194 22.0168 28.9216 23.1299 27.1064 23.4928L26.6042 23.5934V33.3383L29.2358 33.996C30.6281 34.3446 31.6013 35.5901 31.6013 37.0261V46.5924Z" fill="#5051DB"/>
<path d="M42.8446 21.8656L48.0022 16.708C48.7043 16.0059 49.091 15.0727 49.091 14.0802C49.091 12.0308 47.4238 10.3636 45.3744 10.3636C44.4275 10.3636 43.5342 10.7153 42.8446 11.3574C42.155 10.7153 41.2618 10.3636 40.3149 10.3636C38.2654 10.3636 36.5983 12.0308 36.5983 14.0802C36.5983 15.0727 36.9849 16.0059 37.687 16.708L42.8446 21.8656ZM40.3149 11.6129C40.9739 11.6129 41.5935 11.8696 42.0595 12.3356L42.8446 13.1214L43.6298 12.3356C44.0958 11.8696 44.7154 11.6129 45.3744 11.6129C46.7348 11.6129 47.8417 12.7197 47.8417 14.0802C47.8417 14.7392 47.585 15.3588 47.119 15.8248L42.8446 20.0992L38.5703 15.8242C38.1043 15.3588 37.8476 14.7392 37.8476 14.0802C37.8476 12.7197 38.9544 11.6129 40.3149 11.6129Z" fill="#5051DB"/>
<path d="M39.9807 26.4723C40.6097 25.9482 40.9707 25.1774 40.9707 24.3585C40.9707 22.8413 39.7358 21.607 38.2192 21.607H38.1037C37.5521 21.607 37.0249 21.7682 36.5952 22.0524C36.1517 21.7626 35.6345 21.607 35.0929 21.607H34.9774C33.4608 21.607 32.2259 22.8413 32.2259 24.3585C32.2259 25.1774 32.5869 25.9476 33.2159 26.4723L36.5983 29.2913L39.9807 26.4723ZM33.4751 24.3585C33.4751 23.5303 34.1491 22.8563 34.9774 22.8563H35.0929C35.4883 22.8563 35.875 23.0168 36.1967 23.3348L36.6389 23.7002L37.0424 23.2967C37.3216 23.0168 37.7083 22.8563 38.1037 22.8563H38.2192C39.0475 22.8563 39.7215 23.5303 39.7215 24.3585C39.7215 24.8058 39.5247 25.2262 39.1805 25.5129L36.5983 27.6647L34.0161 25.5129C33.6719 25.2262 33.4751 24.8058 33.4751 24.3585Z" fill="#5051DB"/>
<path d="M46.3395 28.478H46.224C45.6724 28.478 45.1452 28.6392 44.7155 28.9234C44.272 28.6335 43.7548 28.478 43.2132 28.478H43.0977C41.5811 28.478 40.3462 29.7123 40.3462 31.2295C40.3462 32.0484 40.7072 32.8186 41.3362 33.3433L44.7186 36.1622L48.101 33.3433C48.73 32.8192 49.091 32.0484 49.091 31.2295C49.091 29.7123 47.8561 28.478 46.3395 28.478ZM47.3008 32.3838L44.7186 34.5357L42.1364 32.3838C41.7922 32.0971 41.5954 31.6767 41.5954 31.2295C41.5954 30.4012 42.2694 29.7273 43.0977 29.7273H43.2132C43.6086 29.7273 43.9953 29.8878 44.317 30.2057L44.7592 30.5711L45.1627 30.1676C45.4419 29.8878 45.8286 29.7273 46.224 29.7273H46.3395C47.1678 29.7273 47.8418 30.4012 47.8418 31.2295C47.8418 31.6767 47.645 32.0971 47.3008 32.3838Z" fill="#5051DB"/>
<path d="M40.0932 36.5982H39.9776C39.4261 36.5982 38.8989 36.7594 38.4691 37.0436C38.0256 36.7538 37.5084 36.5982 36.9669 36.5982H36.8513C35.3347 36.5982 34.0998 37.8325 34.0998 39.3497C34.0998 40.1686 34.4608 40.9388 35.0899 41.4635L38.4722 44.2825L41.8546 41.4635C42.4836 40.9394 42.8447 40.1686 42.8447 39.3497C42.8447 37.8325 41.6098 36.5982 40.0932 36.5982ZM41.0545 40.5041L38.4722 42.6559L35.89 40.5041C35.5458 40.2174 35.3491 39.797 35.3491 39.3497C35.3491 38.5215 36.0231 37.8475 36.8513 37.8475H36.9669C37.3623 37.8475 37.7489 38.008 38.0706 38.326L38.5128 38.6914L38.9164 38.2879C39.1956 38.008 39.5822 37.8475 39.9776 37.8475H40.0932C40.9214 37.8475 41.5954 38.5215 41.5954 39.3497C41.5954 39.797 41.3986 40.2174 41.0545 40.5041Z" fill="#5051DB"/>
</svg>
