<svg width="43" height="70" viewBox="0 0 43 70" fill="none" xmlns="http://www.w3.org/2000/svg">
<path d="M1.31256 45.4421C2.24298 38.4635 5.98682 32.0359 11.5893 27.7753V22.9835C11.5893 14.6896 14.8197 6.89249 20.6839 1.0272L20.7859 0.925178C21.2195 0.491575 21.9204 0.491575 22.354 0.925178L22.456 1.0272C28.3202 6.89138 31.5506 14.6896 31.5506 22.9835V27.7753C37.153 32.0359 40.8969 38.4635 41.8273 45.4421L42.6302 51.466C42.7 51.9917 42.3884 52.494 41.8861 52.6637C41.7685 52.7025 41.6487 52.7214 41.5312 52.7214C41.142 52.7214 40.7693 52.5151 40.5686 52.1624L39.4342 50.1763C37.7796 47.2819 34.8242 45.3878 31.5506 45.0318V46.0676C31.5506 46.6797 31.0537 47.1766 30.4416 47.1766H29.3326V50.5034C29.3326 51.1156 28.8358 51.6124 28.2237 51.6124H22.6789V56.0482H20.461V51.6124H14.9162C14.304 51.6124 13.8072 51.1156 13.8072 50.5034V47.1766H12.6982C12.0861 47.1766 11.5893 46.6797 11.5893 46.0676V45.0329C8.31564 45.3878 5.36026 47.283 3.70569 50.1774L2.57123 52.1635C2.3694 52.5151 1.9979 52.7214 1.60865 52.7214C1.4911 52.7214 1.37134 52.7025 1.25379 52.6626C0.751427 52.4929 0.439808 51.9917 0.509672 51.4649L1.31256 45.4421ZM21.5699 3.30057C19.24 5.79129 17.4058 8.62912 16.1028 11.6898H27.0371C25.7341 8.62912 23.8998 5.79129 21.5699 3.30057ZM39.7846 46.9004L39.6293 45.7349C38.8542 39.9173 35.9332 34.5311 31.5506 30.663V42.7995C34.7255 43.0834 37.6709 44.5594 39.7846 46.9004ZM16.0251 49.3945H27.1147V47.1766H16.0251V49.3945ZM13.8072 44.9586H29.3326V22.9835C29.3326 19.8518 28.8314 16.7977 27.8766 13.9078H15.2622C14.3085 16.7977 13.8072 19.8518 13.8072 22.9835V44.9586ZM11.5893 42.8006V30.663C7.20668 34.5322 4.28679 39.9184 3.51052 45.7349L3.35526 46.9004C5.46894 44.5594 8.41434 43.0834 11.5893 42.8006Z" fill="#5051DB"/>
<path d="M21.5699 20.5615C25.2394 20.5615 28.2236 23.5457 28.2236 27.2153C28.2236 30.8848 25.2394 33.869 21.5699 33.869C17.9003 33.869 14.9161 30.8848 14.9161 27.2153C14.9161 23.5457 17.9003 20.5615 21.5699 20.5615ZM21.5699 31.6511C24.0162 31.6511 26.0057 29.6616 26.0057 27.2153C26.0057 24.7689 24.0162 22.7794 21.5699 22.7794C19.1235 22.7794 17.134 24.7689 17.134 27.2153C17.134 29.6616 19.1235 31.6511 21.5699 31.6511Z" fill="#5051DB"/>
<path d="M16.2112 53.2148L18.0565 54.4447L16.8777 56.2135C16.3199 57.0507 16.0249 58.0244 16.0249 59.0302C16.0249 60.3865 16.5528 61.6618 17.512 62.621L21.5697 66.6787L25.6274 62.621C26.5866 61.6618 27.1145 60.3865 27.1145 59.0302C27.1145 58.0244 26.8195 57.0507 26.2617 56.2135L25.0829 54.4447L26.9282 53.2148L28.107 54.9836C28.9088 56.1857 29.3324 57.5853 29.3324 59.0302C29.3324 60.9787 28.5739 62.8118 27.1954 64.1891L22.3537 69.0308C22.1375 69.2471 21.8536 69.3558 21.5697 69.3558C21.2858 69.3558 21.0019 69.2471 20.7857 69.0308L15.9439 64.1891C14.5655 62.8118 13.807 60.9787 13.807 59.0302C13.807 57.5853 14.2306 56.1857 15.0324 54.9836L16.2112 53.2148Z" fill="#5051DB"/>
</svg>
