<svg width="60" height="60" viewBox="0 0 60 60" fill="none" xmlns="http://www.w3.org/2000/svg">
<circle cx="30" cy="30" r="30" fill="#5051DB" fill-opacity="0.04"/>
<circle cx="30" cy="30" r="29" stroke="#5051DB" stroke-opacity="0.08" stroke-width="2"/>
<path d="M11.4545 16.7155C11.4545 23.946 16.1701 29.8405 22.929 31.0194C24.2651 32.7484 25.5226 34.2416 26.6229 35.3419L25.8369 40.1361H25.6012C23.9507 40.1361 22.6933 41.4721 22.6933 43.044V46.4235H20.5713C20.0997 46.4235 19.7853 46.7378 19.7853 47.2094V50.5103C19.7853 50.9818 20.0997 51.2962 20.5713 51.2962H38.9619C39.4334 51.2962 39.7478 50.9818 39.7478 50.5103V47.2094C39.7478 46.7378 39.4334 46.4235 38.9619 46.4235H36.7613V43.044C36.7613 41.3935 35.4252 40.1361 33.8534 40.1361H33.6176L32.8317 35.3419C33.932 34.2416 35.1894 32.7484 36.5255 31.0194C43.2845 29.7619 48 23.946 48 16.7155C48 16.244 47.6856 15.9296 47.2141 15.9296H43.2845C43.4416 14.9079 43.5202 13.8862 43.5202 12.7859C43.5202 12.3144 43.2059 12 42.7343 12H16.7988C16.3273 12 16.0129 12.3144 16.0129 12.7859C16.0129 13.8862 16.0915 14.9079 16.2487 15.9296H12.3191C11.7689 15.9296 11.4545 16.244 11.4545 16.7155ZM38.0974 49.7243H21.2786V47.9953H38.0974V49.7243ZM35.1894 43.044V46.4235H24.1865V43.044C24.1865 42.3367 24.8152 41.7079 25.5226 41.7079H33.8534C34.6393 41.7079 35.1894 42.3367 35.1894 43.044ZM27.3302 40.1361L27.8804 36.7566C28.5877 37.4639 29.0592 37.8569 29.1378 37.9355C29.295 38.0927 29.4522 38.0927 29.6094 38.0927C29.7666 38.0927 30.0023 38.0141 30.0809 37.9355C30.1595 37.8569 30.6311 37.4639 31.3384 36.7566L31.8886 40.1361H27.3302ZM46.3496 17.5015C46.0352 23.0815 42.8129 27.4827 37.8616 29.0545C40.0622 25.8323 42.027 21.824 42.8915 17.5015H46.3496ZM41.8698 13.5718C41.3982 24.732 31.9672 34.0845 29.688 36.285C27.4088 34.0845 17.9777 24.732 17.5062 13.5718H41.8698ZM16.4059 17.5015C17.2704 21.9026 19.3138 25.8323 21.4358 29.0545C16.4845 27.4827 13.2622 23.0815 12.9478 17.5015H16.4059Z" fill="#5051DB"/>
<path d="M32.7528 27.8756C32.8314 27.9542 32.9886 27.9542 33.1458 27.9542C33.303 27.9542 33.4602 27.8756 33.6173 27.797C33.8531 27.6399 34.0103 27.3255 33.9317 27.0111L33.3816 23.6316L35.8965 21.1953C36.1323 20.9595 36.2109 20.6451 36.1323 20.4094C36.0537 20.095 35.8179 19.9378 35.5036 19.8592L32.0455 19.3877L30.5522 16.3226C30.3165 15.7724 29.3734 15.7724 29.1376 16.3226L27.6443 19.3877L24.0291 19.8592C23.7147 19.9378 23.4789 20.095 23.4003 20.4094C23.3217 20.7237 23.4003 21.0381 23.6361 21.1953L26.1511 23.6316L25.6009 27.0111C25.5223 27.3255 25.6795 27.6399 25.9153 27.797C26.1511 27.9542 26.4654 28.0328 26.7798 27.8756L29.8449 26.3038L32.7528 27.8756ZM27.33 25.7536L27.7229 23.4745C27.8015 23.2387 27.6443 22.9243 27.4871 22.7671L25.8367 21.1953L28.1159 20.8809C28.3517 20.8809 28.5874 20.6451 28.7446 20.4879L29.7663 18.4445L30.788 20.4879C30.8666 20.7237 31.1024 20.8809 31.4168 20.8809L33.6959 21.1953L32.0455 22.7671C31.8883 22.9243 31.8097 23.2387 31.8097 23.4745L32.2027 25.7536L30.1593 24.6533C29.9235 24.5748 29.8449 24.5748 29.6877 24.5748C29.5305 24.5748 29.452 24.5748 29.2948 24.6533L27.33 25.7536Z" fill="#5051DB"/>
</svg>
