<svg width="60" height="60" viewBox="0 0 60 60" fill="none" xmlns="http://www.w3.org/2000/svg">
<circle cx="30" cy="30" r="30" fill="#5051DB" fill-opacity="0.04"/>
<circle cx="30" cy="30" r="29" stroke="#5051DB" stroke-opacity="0.08" stroke-width="2"/>
<path d="M51.9818 28.8H49.1527C49.0591 26.8249 48.6733 24.9286 48.0316 23.1492L50.6428 22.0671C51.1157 21.8714 51.3401 21.329 51.1445 20.8551C50.9488 20.3813 50.4036 20.1587 49.9325 20.3535L47.3204 21.4356C46.4896 19.6793 45.4075 18.0715 44.1139 16.6499L46.1187 14.6452C46.4812 14.2826 46.4812 13.6957 46.1187 13.334C45.7561 12.9715 45.1701 12.9715 44.8075 13.334L42.8027 15.3388C41.3822 14.0462 39.7733 12.9631 38.018 12.1323L39.1001 9.51922C39.2958 9.04631 39.0714 8.50386 38.5985 8.3082C38.1284 8.11347 37.5822 8.33602 37.3865 8.81078L36.3053 11.4211C34.5259 10.7794 32.6296 10.3936 30.6536 10.3V7.47273C30.6536 6.96087 30.2382 6.54546 29.7263 6.54546C29.2145 6.54546 28.7991 6.96087 28.7991 7.47273V10.3018C26.824 10.3955 24.9277 10.7812 23.1483 11.4229L22.068 8.81171C21.8723 8.33787 21.3299 8.1144 20.857 8.30913C20.3831 8.50478 20.1587 9.04724 20.3544 9.52015L21.4365 12.1323C19.6803 12.9631 18.0724 14.0462 16.6509 15.3388L14.6461 13.334C14.2835 12.9715 13.6975 12.9715 13.3349 13.334C12.9724 13.6966 12.9724 14.2826 13.3349 14.6452L15.3397 16.6499C14.0471 18.0715 12.964 19.6793 12.1332 21.4356L9.522 20.3535C9.04909 20.1578 8.50664 20.3813 8.31006 20.8551C8.1144 21.328 8.3388 21.8705 8.81171 22.0671L11.422 23.1492C10.7803 24.9286 10.3946 26.824 10.3009 28.8H7.47273C6.96087 28.8 6.54546 29.2154 6.54546 29.7273C6.54546 30.2391 6.96087 30.6545 7.47273 30.6545H10.3018C10.3955 32.6306 10.7812 34.5268 11.4229 36.3072L8.81264 37.3875C8.33973 37.5831 8.1144 38.1256 8.31006 38.5994C8.45749 38.9564 8.80336 39.1715 9.16686 39.1715C9.28462 39.1715 9.40516 39.1493 9.52107 39.1011L12.1341 38.0189C12.965 39.7752 14.0471 41.3831 15.3397 42.8037L13.3349 44.8084C12.9724 45.171 12.9724 45.757 13.3349 46.1196C13.5158 46.3004 13.7531 46.3913 13.9905 46.3913C14.2279 46.3913 14.4653 46.3004 14.6461 46.1196L16.6509 44.1148C18.0724 45.4084 19.6812 46.4905 21.4365 47.3213L20.3544 49.9335C20.1587 50.4073 20.3831 50.9498 20.8561 51.1454C20.972 51.1936 21.0925 51.2159 21.2103 51.2159C21.5747 51.2159 21.9196 51.0008 22.0671 50.6438L23.1483 48.0326C24.9277 48.6742 26.8231 49.06 28.7991 49.1536V51.9818C28.7991 52.4946 29.2145 52.9091 29.7263 52.9091C30.2382 52.9091 30.6536 52.4946 30.6536 51.9818V49.1527C32.6296 49.0591 34.525 48.6733 36.3053 48.0316L37.3865 50.6419C37.534 50.9989 37.8799 51.214 38.2433 51.214C38.362 51.214 38.4826 51.1918 38.5985 51.1436C39.0714 50.9479 39.2958 50.4055 39.1001 49.9316L38.018 47.3195C39.7743 46.4887 41.3822 45.4065 42.8027 44.1139L44.8075 46.1187C44.9883 46.2995 45.2257 46.3904 45.4631 46.3904C45.7005 46.3904 45.9379 46.2995 46.1187 46.1187C46.4812 45.7561 46.4812 45.1701 46.1187 44.8075L44.1139 42.8027C45.4065 41.3822 46.4896 39.7733 47.3195 38.018L49.9325 39.0992C50.0485 39.1474 50.169 39.1697 50.2877 39.1697C50.6521 39.1697 50.9971 38.9546 51.1445 38.5976C51.3401 38.1237 51.1157 37.5813 50.6428 37.3856L48.0316 36.3044C48.6733 34.525 49.0591 32.6296 49.1527 30.6536H51.9818C52.4946 30.6536 52.9091 30.2382 52.9091 29.7263C52.9091 29.2145 52.4946 28.8 51.9818 28.8ZM29.7273 47.3455C20.0122 47.3455 12.1091 39.4423 12.1091 29.7273C12.1091 20.0122 20.0122 12.1091 29.7273 12.1091C39.4423 12.1091 47.3455 20.0122 47.3455 29.7273C47.3455 39.4423 39.4423 47.3455 29.7273 47.3455Z" fill="#5051DB"/>
<path d="M29.7273 26.9455C32.2838 26.9455 34.3637 24.8656 34.3637 22.3092C34.3637 19.7527 32.2838 17.6728 29.7273 17.6728C27.1708 17.6728 25.091 19.7527 25.091 22.3092C25.091 24.8656 27.1708 26.9455 29.7273 26.9455ZM29.7273 19.5273C31.261 19.5273 32.5091 20.7754 32.5091 22.3092C32.5091 23.8429 31.261 25.091 29.7273 25.091C28.1936 25.091 26.9455 23.8429 26.9455 22.3092C26.9455 20.7754 28.1936 19.5273 29.7273 19.5273Z" fill="#5051DB"/>
<path d="M33.4364 28.8001H26.0182C23.4617 28.8001 21.3818 30.8799 21.3818 33.4364V39.0001C21.3818 39.5129 21.7973 39.9273 22.3091 39.9273C22.821 39.9273 23.2364 39.5129 23.2364 39.0001V33.4364C23.2364 31.9027 24.4845 30.6546 26.0182 30.6546H33.4364C34.9701 30.6546 36.2182 31.9027 36.2182 33.4364V39.0001C36.2182 39.5129 36.6327 39.9273 37.1455 39.9273C37.6583 39.9273 38.0727 39.5129 38.0727 39.0001V33.4364C38.0727 30.8799 35.9929 28.8001 33.4364 28.8001Z" fill="#5051DB"/>
</svg>
