<svg width="66" height="39" viewBox="0 0 66 39" fill="none" xmlns="http://www.w3.org/2000/svg">
<path d="M33.0556 0.199829C38.8425 0.199829 43.5166 4.87391 43.5166 10.7721C43.5166 16.5591 38.8425 21.2332 33.0556 21.2332C27.1573 21.2332 22.4833 16.5591 22.4833 10.7721C22.4833 4.87391 27.1573 0.199829 33.0556 0.199829ZM33.0556 2.42558C28.3815 2.42558 24.709 6.09807 24.709 10.7721C24.709 15.3349 28.3815 19.0074 33.0556 19.0074C37.6184 19.0074 41.2909 15.3349 41.2909 10.7721C41.2909 6.09807 37.6184 2.42558 33.0556 2.42558Z" fill="#5051DB"/>
<path d="M19.4786 37.3699C19.4786 37.9264 18.9222 38.3715 18.2545 38.2602C17.698 38.2602 17.2529 37.7038 17.3642 37.0361C18.2545 29.1347 24.9317 23.0139 33.0557 23.0139C41.0684 23.0139 47.857 29.1347 48.7473 37.0361C48.7473 37.7038 48.3021 38.2602 47.7457 38.2602C47.0779 38.3715 46.5215 37.9264 46.5215 37.3699C45.7425 30.4701 39.9555 25.2396 33.0557 25.2396C26.1559 25.2396 20.2577 30.4701 19.4786 37.3699Z" fill="#5051DB"/>
<path d="M53.6437 9.21417C58.2065 9.21417 61.879 12.8867 61.879 17.3382C61.879 21.901 58.2065 25.5734 53.6437 25.5734C49.1922 25.5734 45.5197 21.901 45.5197 17.3382C45.5197 12.8867 49.1922 9.21417 53.6437 9.21417ZM53.6437 11.4399C50.4164 11.4399 47.7455 14.1108 47.7455 17.3382C47.7455 20.6768 50.4164 23.3477 53.6437 23.3477C56.9823 23.3477 59.6532 20.6768 59.6532 17.3382C59.6532 14.1108 56.9823 11.4399 53.6437 11.4399Z" fill="#5051DB"/>
<path d="M49.1922 30.025C48.6358 30.3588 47.9681 30.1363 47.6342 29.5798C47.4116 29.0234 47.6342 28.3557 48.1906 28.0218C49.86 27.2428 51.7518 26.6863 53.6437 26.6863C59.6533 26.6863 64.7725 31.1378 65.6628 37.0361C65.7741 37.5925 65.3289 38.2602 64.7725 38.2602C64.1048 38.3715 63.5483 37.9264 63.437 37.3699C62.7693 32.4733 58.5404 28.9121 53.6437 28.9121C52.0857 28.9121 50.5277 29.3572 49.1922 30.025Z" fill="#5051DB"/>
<path d="M12.3562 9.21417C16.8077 9.21417 20.4802 12.8867 20.4802 17.3382C20.4802 21.901 16.8077 25.5734 12.3562 25.5734C7.79342 25.5734 4.12093 21.901 4.12093 17.3382C4.12093 12.8867 7.79342 9.21417 12.3562 9.21417ZM12.3562 11.4399C9.01758 11.4399 6.34668 14.1108 6.34668 17.3382C6.34668 20.6768 9.01758 23.3477 12.3562 23.3477C15.5835 23.3477 18.2544 20.6768 18.2544 17.3382C18.2544 14.1108 15.5835 11.4399 12.3562 11.4399Z" fill="#5051DB"/>
<path d="M2.5629 37.3699C2.45161 37.9264 1.89517 38.3715 1.33873 38.2602C0.671008 38.2602 0.225858 37.5925 0.337146 37.0361C1.22745 31.1378 6.34667 26.6863 12.3562 26.6863C14.2481 26.6863 16.14 27.2428 17.9206 28.0218C18.3657 28.3557 18.5883 29.0234 18.3657 29.5798C18.0319 30.1363 17.3641 30.3588 16.8077 30.025C15.4723 29.3572 13.9142 28.9121 12.3562 28.9121C7.45955 28.9121 3.23062 32.4733 2.5629 37.3699Z" fill="#5051DB"/>
</svg>
