<svg width="23" height="17" viewBox="0 0 23 17" fill="none" xmlns="http://www.w3.org/2000/svg">
<path d="M21.85 13.8H1.15C0.51405 13.8 0 14.3141 0 14.95C0 15.586 0.51405 16.1 1.15 16.1H21.85C22.4859 16.1 23 15.586 23 14.95C23 14.3141 22.4859 13.8 21.85 13.8Z" fill="#5051DB"/>
<path d="M21.85 6.90015H1.15C0.51405 6.90015 0 7.41535 0 8.05015C0 8.68495 0.51405 9.20015 1.15 9.20015H21.85C22.4859 9.20015 23 8.68495 23 8.05015C23 7.41535 22.4859 6.90015 21.85 6.90015Z" fill="#5051DB"/>
<path d="M1.15 2.3H21.85C22.4859 2.3 23 1.7848 23 1.15C23 0.5152 22.4859 0 21.85 0H1.15C0.51405 0 0 0.5152 0 1.15C0 1.7848 0.51405 2.3 1.15 2.3Z" fill="#5051DB"/>
</svg>
