<svg width="100" height="100" viewBox="0 0 100 100" fill="none" xmlns="http://www.w3.org/2000/svg">
<circle cx="50" cy="50" r="47.5" stroke="#EE2B7A" stroke-width="5"/>
<path d="M50.5001 38.833H40.2917C37.8709 38.833 35.9167 40.7872 35.9167 43.208V54.8747C35.9167 57.2955 37.8709 59.2497 40.2917 59.2497L38.8334 60.708V62.1663H40.2917L43.2084 59.2059L46.1251 59.2497V51.958H38.8334V41.7205L51.9584 41.7497V44.6663H54.8751V43.208C54.8751 40.7872 52.9209 38.833 50.5001 38.833ZM40.2917 53.4163C41.0938 53.4163 41.7501 54.0726 41.7501 54.8747C41.7501 55.6768 41.0938 56.333 40.2917 56.333C39.4897 56.333 38.8334 55.6768 38.8334 54.8747C38.8334 54.0726 39.4897 53.4163 40.2917 53.4163ZM62.998 47.0872C62.7938 46.5038 62.2397 46.1247 61.5834 46.1247H51.098C50.4272 46.1247 49.8876 46.5038 49.6688 47.0872L47.5834 53.0809L47.598 61.1163C47.598 61.6705 48.0501 62.1663 48.6042 62.1663H49.5084C50.0626 62.1663 50.5001 61.6122 50.5001 61.058V59.2497H62.1668V61.058C62.1668 61.6122 62.6188 62.1663 63.173 62.1663H64.0626C64.6168 62.1663 65.0688 61.6705 65.0688 61.1163L65.0834 59.1184V53.0809L62.998 47.0872ZM51.098 47.583H61.5834L63.0855 51.958H49.5959L51.098 47.583ZM50.5001 56.333C49.698 56.333 49.0417 55.6768 49.0417 54.8747C49.0417 54.0726 49.698 53.4163 50.5001 53.4163C51.3022 53.4163 51.9584 54.0726 51.9584 54.8747C51.9584 55.6768 51.3022 56.333 50.5001 56.333ZM62.1668 56.333C61.3647 56.333 60.7084 55.6768 60.7084 54.8747C60.7084 54.0726 61.3647 53.4163 62.1668 53.4163C62.9688 53.4163 63.6251 54.0726 63.6251 54.8747C63.6251 55.6768 62.9688 56.333 62.1668 56.333Z" fill="white"/>
</svg>
