<svg width="100" height="100" viewBox="0 0 100 100" fill="none" xmlns="http://www.w3.org/2000/svg">
<circle cx="50" cy="50" r="47.5" stroke="#EE2B7A" stroke-width="5"/>
<path d="M58.2501 43.667C58.2501 38.8399 54.3272 34.917 49.5001 34.917C44.673 34.917 40.7501 38.8399 40.7501 43.667C40.7501 50.2295 49.5001 59.7087 49.5001 59.7087C49.5001 59.7087 58.2501 50.2295 58.2501 43.667ZM46.5834 43.667C46.5834 42.0628 47.8959 40.7503 49.5001 40.7503C51.1042 40.7503 52.4167 42.0628 52.4167 43.667C52.4167 45.2712 51.1188 46.5837 49.5001 46.5837C47.8959 46.5837 46.5834 45.2712 46.5834 43.667ZM39.2917 61.167V64.0837H59.7084V61.167H39.2917Z" fill="white"/>
</svg>
