<svg width="15" height="17" viewBox="0 0 15 17" fill="none" xmlns="http://www.w3.org/2000/svg">
<g clip-path="url(#clip0_57_182)">
<path d="M3.35759 14.8756H0.247768V4.94459H3.35759V14.8756ZM1.801 3.5899C0.806585 3.5899 0 2.77311 0 1.78697C7.11763e-09 1.3133 0.189748 0.859022 0.527502 0.524083C0.865256 0.189144 1.32335 0.000976562 1.801 0.000976562C2.27866 0.000976562 2.73675 0.189144 3.07451 0.524083C3.41226 0.859022 3.60201 1.3133 3.60201 1.78697C3.60201 2.77311 2.79509 3.5899 1.801 3.5899ZM14.9967 14.8756H11.8935V10.0413C11.8935 8.88912 11.8701 7.41158 10.2767 7.41158C8.65982 7.41158 8.41205 8.66334 8.41205 9.95826V14.8756H5.30558V4.94459H8.28817V6.29928H8.3317C8.74687 5.51901 9.76105 4.69557 11.2741 4.69557C14.4214 4.69557 15 6.75084 15 9.42037V14.8756H14.9967Z" fill="white"/>
</g>
<defs>
<clipPath id="clip0_57_182">
<rect width="15" height="17" fill="white"/>
</clipPath>
</defs>
</svg>
