<svg width="70" height="70" viewBox="0 0 70 70" fill="none" xmlns="http://www.w3.org/2000/svg">
<path d="M35.0001 5.83301C22.1084 5.83301 11.6667 7.29134 11.6667 17.4997V45.208C11.6667 50.8372 16.2459 55.4163 21.8751 55.4163L17.5001 59.7913V61.2497H52.5001V59.7913L48.1251 55.4163C53.7542 55.4163 58.3334 50.8372 58.3334 45.208V17.4997C58.3334 7.29134 47.8917 5.83301 35.0001 5.83301ZM21.8751 49.583C19.4542 49.583 17.5001 47.6288 17.5001 45.208C17.5001 42.7872 19.4542 40.833 21.8751 40.833C24.2959 40.833 26.2501 42.7872 26.2501 45.208C26.2501 47.6288 24.2959 49.583 21.8751 49.583ZM32.0834 32.083H17.5001V17.4997H32.0834V32.083ZM48.1251 49.583C45.7042 49.583 43.7501 47.6288 43.7501 45.208C43.7501 42.7872 45.7042 40.833 48.1251 40.833C50.5459 40.833 52.5001 42.7872 52.5001 45.208C52.5001 47.6288 50.5459 49.583 48.1251 49.583ZM52.5001 32.083H37.9167V17.4997H52.5001V32.083Z" fill="white"/>
</svg>
