<svg width="70" height="70" viewBox="0 0 70 70" fill="none" xmlns="http://www.w3.org/2000/svg">
<path d="M34.9999 20.4167V8.75H5.83325V61.25H64.1666V20.4167H34.9999ZM17.4999 55.4167H11.6666V49.5833H17.4999V55.4167ZM17.4999 43.75H11.6666V37.9167H17.4999V43.75ZM17.4999 32.0833H11.6666V26.25H17.4999V32.0833ZM17.4999 20.4167H11.6666V14.5833H17.4999V20.4167ZM29.1666 55.4167H23.3333V49.5833H29.1666V55.4167ZM29.1666 43.75H23.3333V37.9167H29.1666V43.75ZM29.1666 32.0833H23.3333V26.25H29.1666V32.0833ZM29.1666 20.4167H23.3333V14.5833H29.1666V20.4167ZM58.3333 55.4167H34.9999V49.5833H40.8333V43.75H34.9999V37.9167H40.8333V32.0833H34.9999V26.25H58.3333V55.4167ZM52.4999 32.0833H46.6666V37.9167H52.4999V32.0833ZM52.4999 43.75H46.6666V49.5833H52.4999V43.75Z" fill="white"/>
</svg>
