<svg width="70" height="70" viewBox="0 0 70 70" fill="none" xmlns="http://www.w3.org/2000/svg">
<path d="M33.5417 5.83301C19.8625 5.83301 8.75 16.9455 8.75 30.6247C8.75 44.3038 19.8625 55.4163 33.5417 55.4163H35V64.1663C49.175 57.3413 58.3333 43.7497 58.3333 30.6247C58.3333 16.9455 47.2208 5.83301 33.5417 5.83301ZM36.4583 48.1247H30.625V42.2913H36.4583V48.1247ZM36.4583 37.9163H30.625C30.625 28.4372 39.375 29.1663 39.375 23.333C39.375 20.1247 36.75 17.4997 33.5417 17.4997C30.3333 17.4997 27.7083 20.1247 27.7083 23.333H21.875C21.875 16.8872 27.0958 11.6663 33.5417 11.6663C39.9875 11.6663 45.2083 16.8872 45.2083 23.333C45.2083 30.6247 36.4583 31.3538 36.4583 37.9163Z" fill="white"/>
</svg>
