<svg width="22" height="21" viewBox="0 0 22 21" fill="none" xmlns="http://www.w3.org/2000/svg">
<mask id="path-1-inside-1_1_94" fill="white">
<path d="M19.865 1.43593C17.5103 -0.753131 14.0083 -0.359381 11.847 2.07343L11.0005 3.02499L10.154 2.07343C7.99701 -0.359381 4.49076 -0.753131 2.13607 1.43593C-0.562363 3.94843 -0.70416 8.45781 1.71068 11.1812L10.0251 20.5469C10.5622 21.1516 11.4345 21.1516 11.9716 20.5469L20.2861 11.1812C22.7052 8.45781 22.5634 3.94843 19.865 1.43593Z"/>
</mask>
<path d="M11.847 2.07343L13.3413 3.40273L13.3422 3.40176L11.847 2.07343ZM11.0005 3.02499L9.50622 4.35429L11.0005 6.0341L12.4948 4.35429L11.0005 3.02499ZM10.154 2.07343L8.65755 3.40028L8.65973 3.40273L10.154 2.07343ZM2.13607 1.43593L0.774314 -0.0288597L0.77319 -0.027813L2.13607 1.43593ZM1.71068 11.1812L0.214231 12.5081L0.215029 12.509L1.71068 11.1812ZM10.0251 20.5469L8.52948 21.8747L8.52984 21.8751L10.0251 20.5469ZM11.9716 20.5469L13.4669 21.8751L13.4673 21.8747L11.9716 20.5469ZM20.2861 11.1812L18.7908 9.85303L18.7904 9.85346L20.2861 11.1812ZM21.2267 -0.0288592C17.9364 -3.08774 13.1511 -2.40583 10.3518 0.745106L13.3422 3.40176C14.8655 1.68706 17.0842 1.58148 18.5032 2.90072L21.2267 -0.0288592ZM10.3527 0.744132L9.50622 1.69569L12.4948 4.35429L13.3413 3.40273L10.3527 0.744132ZM12.4948 1.6957L11.6484 0.744133L8.65973 3.40273L9.50622 4.35429L12.4948 1.6957ZM11.6505 0.746584C8.85438 -2.40707 4.06384 -3.08701 0.774315 -0.0288592L3.49783 2.90072C4.91768 1.58075 7.13965 1.6883 8.65755 3.40028L11.6505 0.746584ZM0.77319 -0.027813C-2.74167 3.24485 -2.90086 8.99496 0.214232 12.5081L3.20713 9.85436C1.49254 7.92065 1.61694 4.65201 3.49896 2.89968L0.77319 -0.027813ZM0.215029 12.509L8.52948 21.8747L11.5208 19.2191L3.20634 9.85346L0.215029 12.509ZM8.52984 21.8751C9.86259 23.3755 12.1342 23.3755 13.4669 21.8751L10.4763 19.2187C10.5762 19.1063 10.7626 19.0004 10.9984 19.0004C11.2342 19.0004 11.4206 19.1063 11.5204 19.2187L8.52984 21.8751ZM13.4673 21.8747L21.7817 12.509L18.7904 9.85346L10.476 19.2191L13.4673 21.8747ZM21.7814 12.5095C24.9022 8.996 24.7429 3.24497 21.2279 -0.027813L18.5021 2.89968C20.384 4.65189 20.5082 7.91961 18.7908 9.85304L21.7814 12.5095Z" fill="#FF5652" mask="url(#path-1-inside-1_1_94)"/>
</svg>
